<?xml version='1.0' encoding='UTF-8' standalone='no'?>
<svg height="314pt" xmlns:xlink="http://www.w3.org/1999/xlink" viewBox="0 0 419 314" xmlns="http://www.w3.org/2000/svg" width="419pt">
 <title>Figure 1</title>
 <desc>
Creator: GL2PS 1.4.2, (C) 1999-2020 C. Geuzaine
For: Octave
CreationDate: Thu Jul 18 17:36:25 2024
</desc>
 <defs/>
 <polygon fill="#ffffff" points="0,0 419,0 419,314 0,314"/>
 <g>
  <polygon shape-rendering="crispEdges" fill="#ffffff" points="0,314 419,314 419,0 0,0"/>
  <clipPath id="cp00419314">
   <polygon points="0,314 419,314 419,0 0,0"/>
  </clipPath>
  <g clip-path="url(#cp00419314)">
   <polygon shape-rendering="crispEdges" fill="#ffffff" points="54.5642,280.166 379.851,280.166 379.851,23.6095 54.5642,23.6095"/>
   <g font-family="FreeSans" transform="translate(131.707,13.6095) rotate(-0,85.5,0)" font-weight="bold" font-style="normal" xml:space="preserve" font-size="11">
    <text fill="rgb(0,0,0)" x="0 8 15 22 25 28 35 42 50 56 59 63 71 77 80 86 89 96 99 102 109 112 115 118 125 128 131 137 140 147 153 160 167 " y="-3">RSSI LoRa (Deivid, Filipi e Yago)</text>
   </g>
   <g font-family="FreeSans" transform="translate(5.05977,151.888) rotate(-90,27.5,0)" font-weight="normal" font-style="normal" xml:space="preserve" font-size="11">
    <text fill="rgb(38,38,38)" x="0 7 11 17 23 29 35 41 47 49 " y="-3">Frequência</text>
   </g>
   <g font-family="FreeSans" transform="translate(204.707,309.653) rotate(-0,12.5,-9)" font-weight="normal" font-style="normal" xml:space="preserve" font-size="11">
    <text fill="rgb(38,38,38)" x="0 8 15 22 " y="-0">RSSI</text>
   </g>
   <polygon shape-rendering="crispEdges" fill="#20928c" points="89.6951,280.166 89.6951,265.506 87.0928,265.506 87.0928,280.166"/>
   <polygon shape-rendering="crispEdges" fill="#20928c" points="94.8997,280.166 94.8997,272.836 92.2974,272.836 92.2974,280.166"/>
   <polygon shape-rendering="crispEdges" fill="#20928c" points="100.104,280.166 100.104,228.855 97.502,228.855 97.502,280.166"/>
   <polygon shape-rendering="crispEdges" fill="#20928c" points="107.911,280.166 107.911,258.175 105.309,258.175 105.309,280.166"/>
   <polygon shape-rendering="crispEdges" fill="#20928c" points="113.116,280.166 113.116,214.194 110.513,214.194 110.513,280.166"/>
   <polygon shape-rendering="crispEdges" fill="#20928c" points="120.923,280.166 120.923,265.506 118.32,265.506 118.32,280.166"/>
   <polygon shape-rendering="crispEdges" fill="#20928c" points="126.127,280.166 126.127,236.185 123.525,236.185 123.525,280.166"/>
   <polygon shape-rendering="crispEdges" fill="#20928c" points="133.934,280.166 133.934,206.864 131.332,206.864 131.332,280.166"/>
   <polygon shape-rendering="crispEdges" fill="#20928c" points="139.139,280.166 139.139,192.204 136.536,192.204 136.536,280.166"/>
   <polygon shape-rendering="crispEdges" fill="#20928c" points="146.946,280.166 146.946,89.5812 144.343,89.5812 144.343,280.166"/>
   <polygon shape-rendering="crispEdges" fill="#20928c" points="152.15,280.166 152.15,23.6095 149.548,23.6095 149.548,280.166"/>
   <polygon shape-rendering="crispEdges" fill="#20928c" points="159.957,280.166 159.957,221.525 157.355,221.525 157.355,280.166"/>
   <polygon shape-rendering="crispEdges" fill="#20928c" points="165.162,280.166 165.162,126.232 162.559,126.232 162.559,280.166"/>
   <polygon shape-rendering="crispEdges" fill="#20928c" points="172.968,280.166 172.968,214.194 170.366,214.194 170.366,280.166"/>
   <polygon shape-rendering="crispEdges" fill="#20928c" points="178.173,280.166 178.173,214.194 175.571,214.194 175.571,280.166"/>
   <polygon shape-rendering="crispEdges" fill="#20928c" points="185.98,280.166 185.98,265.506 183.378,265.506 183.378,280.166"/>
   <polygon shape-rendering="crispEdges" fill="#20928c" points="191.184,280.166 191.184,236.185 188.582,236.185 188.582,280.166"/>
   <polygon shape-rendering="crispEdges" fill="#20928c" points="198.991,280.166 198.991,265.506 196.389,265.506 196.389,280.166"/>
   <polygon shape-rendering="crispEdges" fill="#20928c" points="204.196,280.166 204.196,192.204 201.594,192.204 201.594,280.166"/>
   <polygon shape-rendering="crispEdges" fill="#20928c" points="212.003,280.166 212.003,184.874 209.401,184.874 209.401,280.166"/>
   <polygon shape-rendering="crispEdges" fill="#20928c" points="217.207,280.166 217.207,221.525 214.605,221.525 214.605,280.166"/>
   <polygon shape-rendering="crispEdges" fill="#20928c" points="225.014,280.166 225.014,221.525 222.412,221.525 222.412,280.166"/>
   <polygon shape-rendering="crispEdges" fill="#20928c" points="230.219,280.166 230.219,177.543 227.617,177.543 227.617,280.166"/>
   <polygon shape-rendering="crispEdges" fill="#20928c" points="238.026,280.166 238.026,265.506 235.423,265.506 235.423,280.166"/>
   <polygon shape-rendering="crispEdges" fill="#20928c" points="243.23,280.166 243.23,214.194 240.628,214.194 240.628,280.166"/>
   <polygon shape-rendering="crispEdges" fill="#20928c" points="251.037,280.166 251.037,250.845 248.435,250.845 248.435,280.166"/>
   <polygon shape-rendering="crispEdges" fill="#20928c" points="256.242,280.166 256.242,206.864 253.639,206.864 253.639,280.166"/>
   <polygon shape-rendering="crispEdges" fill="#20928c" points="264.049,280.166 264.049,228.855 261.446,228.855 261.446,280.166"/>
   <polygon shape-rendering="crispEdges" fill="#20928c" points="269.253,280.166 269.253,250.845 266.651,250.845 266.651,280.166"/>
   <polygon shape-rendering="crispEdges" fill="#20928c" points="277.06,280.166 277.06,265.506 274.458,265.506 274.458,280.166"/>
   <polygon shape-rendering="crispEdges" fill="#20928c" points="282.265,280.166 282.265,236.185 279.662,236.185 279.662,280.166"/>
   <polygon shape-rendering="crispEdges" fill="#20928c" points="290.072,280.166 290.072,258.175 287.469,258.175 287.469,280.166"/>
   <polygon shape-rendering="crispEdges" fill="#20928c" points="295.276,280.166 295.276,272.836 292.674,272.836 292.674,280.166"/>
   <polygon shape-rendering="crispEdges" fill="#20928c" points="303.083,280.166 303.083,265.506 300.481,265.506 300.481,280.166"/>
   <polygon shape-rendering="crispEdges" fill="#20928c" points="347.322,280.166 347.322,272.836 344.72,272.836 344.72,280.166"/>
   <polyline stroke-linecap="butt" fill="none" stroke-linejoin="miter" points="89.6951,265.506 87.0928,265.506 87.0928,280.166 89.6951,280.166 89.6951,265.506" stroke="#000000" stroke-width="0.5"/>
   <polyline stroke-linecap="butt" fill="none" stroke-linejoin="miter" points="94.8997,272.836 92.2974,272.836 92.2974,280.166 94.8997,280.166 94.8997,272.836" stroke="#000000" stroke-width="0.5"/>
   <polyline stroke-linecap="butt" fill="none" stroke-linejoin="miter" points="100.104,228.855 97.502,228.855 97.502,280.166 100.104,280.166 100.104,228.855" stroke="#000000" stroke-width="0.5"/>
   <polyline stroke-linecap="butt" fill="none" stroke-linejoin="miter" points="107.911,258.175 105.309,258.175 105.309,280.166 107.911,280.166 107.911,258.175" stroke="#000000" stroke-width="0.5"/>
   <polyline stroke-linecap="butt" fill="none" stroke-linejoin="miter" points="113.116,214.194 110.513,214.194 110.513,280.166 113.116,280.166 113.116,214.194" stroke="#000000" stroke-width="0.5"/>
   <polyline stroke-linecap="butt" fill="none" stroke-linejoin="miter" points="120.923,265.506 118.32,265.506 118.32,280.166 120.923,280.166 120.923,265.506" stroke="#000000" stroke-width="0.5"/>
   <polyline stroke-linecap="butt" fill="none" stroke-linejoin="miter" points="126.127,236.185 123.525,236.185 123.525,280.166 126.127,280.166 126.127,236.185" stroke="#000000" stroke-width="0.5"/>
   <polyline stroke-linecap="butt" fill="none" stroke-linejoin="miter" points="133.934,206.864 131.332,206.864 131.332,280.166 133.934,280.166 133.934,206.864" stroke="#000000" stroke-width="0.5"/>
   <polyline stroke-linecap="butt" fill="none" stroke-linejoin="miter" points="139.139,192.204 136.536,192.204 136.536,280.166 139.139,280.166 139.139,192.204" stroke="#000000" stroke-width="0.5"/>
   <polyline stroke-linecap="butt" fill="none" stroke-linejoin="miter" points="146.946,89.5812 144.343,89.5812 144.343,280.166 146.946,280.166 146.946,89.5812" stroke="#000000" stroke-width="0.5"/>
   <polyline stroke-linecap="butt" fill="none" stroke-linejoin="miter" points="152.15,23.6095 149.548,23.6095 149.548,280.166 152.15,280.166 152.15,23.6095" stroke="#000000" stroke-width="0.5"/>
   <polyline stroke-linecap="butt" fill="none" stroke-linejoin="miter" points="159.957,221.525 157.355,221.525 157.355,280.166 159.957,280.166 159.957,221.525" stroke="#000000" stroke-width="0.5"/>
   <polyline stroke-linecap="butt" fill="none" stroke-linejoin="miter" points="165.162,126.232 162.559,126.232 162.559,280.166 165.162,280.166 165.162,126.232" stroke="#000000" stroke-width="0.5"/>
   <polyline stroke-linecap="butt" fill="none" stroke-linejoin="miter" points="172.968,214.194 170.366,214.194 170.366,280.166 172.968,280.166 172.968,214.194" stroke="#000000" stroke-width="0.5"/>
   <polyline stroke-linecap="butt" fill="none" stroke-linejoin="miter" points="178.173,214.194 175.571,214.194 175.571,280.166 178.173,280.166 178.173,214.194" stroke="#000000" stroke-width="0.5"/>
   <polyline stroke-linecap="butt" fill="none" stroke-linejoin="miter" points="185.98,265.506 183.378,265.506 183.378,280.166 185.98,280.166 185.98,265.506" stroke="#000000" stroke-width="0.5"/>
   <polyline stroke-linecap="butt" fill="none" stroke-linejoin="miter" points="191.184,236.185 188.582,236.185 188.582,280.166 191.184,280.166 191.184,236.185" stroke="#000000" stroke-width="0.5"/>
   <polyline stroke-linecap="butt" fill="none" stroke-linejoin="miter" points="198.991,265.506 196.389,265.506 196.389,280.166 198.991,280.166 198.991,265.506" stroke="#000000" stroke-width="0.5"/>
   <polyline stroke-linecap="butt" fill="none" stroke-linejoin="miter" points="204.196,192.204 201.594,192.204 201.594,280.166 204.196,280.166 204.196,192.204" stroke="#000000" stroke-width="0.5"/>
   <polyline stroke-linecap="butt" fill="none" stroke-linejoin="miter" points="212.003,184.874 209.401,184.874 209.401,280.166 212.003,280.166 212.003,184.874" stroke="#000000" stroke-width="0.5"/>
   <polyline stroke-linecap="butt" fill="none" stroke-linejoin="miter" points="217.207,221.525 214.605,221.525 214.605,280.166 217.207,280.166 217.207,221.525" stroke="#000000" stroke-width="0.5"/>
   <polyline stroke-linecap="butt" fill="none" stroke-linejoin="miter" points="225.014,221.525 222.412,221.525 222.412,280.166 225.014,280.166 225.014,221.525" stroke="#000000" stroke-width="0.5"/>
   <polyline stroke-linecap="butt" fill="none" stroke-linejoin="miter" points="230.219,177.543 227.617,177.543 227.617,280.166 230.219,280.166 230.219,177.543" stroke="#000000" stroke-width="0.5"/>
   <polyline stroke-linecap="butt" fill="none" stroke-linejoin="miter" points="238.026,265.506 235.423,265.506 235.423,280.166 238.026,280.166 238.026,265.506" stroke="#000000" stroke-width="0.5"/>
   <polyline stroke-linecap="butt" fill="none" stroke-linejoin="miter" points="243.23,214.194 240.628,214.194 240.628,280.166 243.23,280.166 243.23,214.194" stroke="#000000" stroke-width="0.5"/>
   <polyline stroke-linecap="butt" fill="none" stroke-linejoin="miter" points="251.037,250.845 248.435,250.845 248.435,280.166 251.037,280.166 251.037,250.845" stroke="#000000" stroke-width="0.5"/>
   <polyline stroke-linecap="butt" fill="none" stroke-linejoin="miter" points="256.242,206.864 253.639,206.864 253.639,280.166 256.242,280.166 256.242,206.864" stroke="#000000" stroke-width="0.5"/>
   <polyline stroke-linecap="butt" fill="none" stroke-linejoin="miter" points="264.049,228.855 261.446,228.855 261.446,280.166 264.049,280.166 264.049,228.855" stroke="#000000" stroke-width="0.5"/>
   <polyline stroke-linecap="butt" fill="none" stroke-linejoin="miter" points="269.253,250.845 266.651,250.845 266.651,280.166 269.253,280.166 269.253,250.845" stroke="#000000" stroke-width="0.5"/>
   <polyline stroke-linecap="butt" fill="none" stroke-linejoin="miter" points="277.06,265.506 274.458,265.506 274.458,280.166 277.06,280.166 277.06,265.506" stroke="#000000" stroke-width="0.5"/>
   <polyline stroke-linecap="butt" fill="none" stroke-linejoin="miter" points="282.265,236.185 279.662,236.185 279.662,280.166 282.265,280.166 282.265,236.185" stroke="#000000" stroke-width="0.5"/>
   <polyline stroke-linecap="butt" fill="none" stroke-linejoin="miter" points="290.072,258.175 287.469,258.175 287.469,280.166 290.072,280.166 290.072,258.175" stroke="#000000" stroke-width="0.5"/>
   <polyline stroke-linecap="butt" fill="none" stroke-linejoin="miter" points="295.276,272.836 292.674,272.836 292.674,280.166 295.276,280.166 295.276,272.836" stroke="#000000" stroke-width="0.5"/>
   <polyline stroke-linecap="butt" fill="none" stroke-linejoin="miter" points="303.083,265.506 300.481,265.506 300.481,280.166 303.083,280.166 303.083,265.506" stroke="#000000" stroke-width="0.5"/>
   <polyline stroke-linecap="butt" fill="none" stroke-linejoin="miter" points="347.322,272.836 344.72,272.836 344.72,280.166 347.322,280.166 347.322,272.836" stroke="#000000" stroke-width="0.5"/>
   <polyline stroke-linecap="butt" stroke-dasharray="16,0" stroke-opacity="0.15" fill="none" stroke-linejoin="miter" points="54.5642,280.166 54.5642,23.6095" stroke="#262626" stroke-width="0.5"/>
   <polyline stroke-linecap="butt" stroke-dasharray="16,0" stroke-opacity="0.15" fill="none" stroke-linejoin="miter" points="119.621,280.166 119.621,23.6095" stroke="#262626" stroke-width="0.5"/>
   <polyline stroke-linecap="butt" stroke-dasharray="16,0" stroke-opacity="0.15" fill="none" stroke-linejoin="miter" points="184.679,280.166 184.679,23.6095" stroke="#262626" stroke-width="0.5"/>
   <polyline stroke-linecap="butt" stroke-dasharray="16,0" stroke-opacity="0.15" fill="none" stroke-linejoin="miter" points="249.736,280.166 249.736,23.6095" stroke="#262626" stroke-width="0.5"/>
   <polyline stroke-linecap="butt" stroke-dasharray="16,0" stroke-opacity="0.15" fill="none" stroke-linejoin="miter" points="314.793,280.166 314.793,23.6095" stroke="#262626" stroke-width="0.5"/>
   <polyline stroke-linecap="butt" stroke-dasharray="16,0" stroke-opacity="0.15" fill="none" stroke-linejoin="miter" points="379.851,280.166 379.851,23.6095" stroke="#262626" stroke-width="0.5"/>
   <polyline stroke-linecap="butt" fill="none" stroke-linejoin="miter" points="54.5642,280.166 54.5642,276.919" stroke="#262626" stroke-width="0.5"/>
   <polyline stroke-linecap="butt" fill="none" stroke-linejoin="miter" points="54.5642,23.6095 54.5642,26.8567" stroke="#262626" stroke-width="0.5"/>
   <polyline stroke-linecap="butt" fill="none" stroke-linejoin="miter" points="119.621,280.166 119.621,276.919" stroke="#262626" stroke-width="0.5"/>
   <polyline stroke-linecap="butt" fill="none" stroke-linejoin="miter" points="119.621,23.6095 119.621,26.8567" stroke="#262626" stroke-width="0.5"/>
   <polyline stroke-linecap="butt" fill="none" stroke-linejoin="miter" points="184.679,280.166 184.679,276.919" stroke="#262626" stroke-width="0.5"/>
   <polyline stroke-linecap="butt" fill="none" stroke-linejoin="miter" points="184.679,23.6095 184.679,26.8567" stroke="#262626" stroke-width="0.5"/>
   <polyline stroke-linecap="butt" fill="none" stroke-linejoin="miter" points="249.736,280.166 249.736,276.919" stroke="#262626" stroke-width="0.5"/>
   <polyline stroke-linecap="butt" fill="none" stroke-linejoin="miter" points="249.736,23.6095 249.736,26.8567" stroke="#262626" stroke-width="0.5"/>
   <polyline stroke-linecap="butt" fill="none" stroke-linejoin="miter" points="314.793,280.166 314.793,276.919" stroke="#262626" stroke-width="0.5"/>
   <polyline stroke-linecap="butt" fill="none" stroke-linejoin="miter" points="314.793,23.6095 314.793,26.8567" stroke="#262626" stroke-width="0.5"/>
   <polyline stroke-linecap="butt" fill="none" stroke-linejoin="miter" points="379.851,280.166 379.851,276.919" stroke="#262626" stroke-width="0.5"/>
   <polyline stroke-linecap="butt" fill="none" stroke-linejoin="miter" points="379.851,23.6095 379.851,26.8567" stroke="#262626" stroke-width="0.5"/>
   <g font-family="FreeSans" transform="translate(44.0642,295.653) rotate(-0,10.5,-8)" font-weight="normal" font-style="normal" xml:space="preserve" font-size="10">
    <text fill="rgb(38,38,38)" x="0 3 9 15 " y="-0">-120</text>
   </g>
   <g font-family="FreeSans" transform="translate(109.121,295.653) rotate(-0,10.5,-8)" font-weight="normal" font-style="normal" xml:space="preserve" font-size="10">
    <text fill="rgb(38,38,38)" x="0 3 9 15 " y="-0">-110</text>
   </g>
   <g font-family="FreeSans" transform="translate(174.179,295.653) rotate(-0,10.5,-8)" font-weight="normal" font-style="normal" xml:space="preserve" font-size="10">
    <text fill="rgb(38,38,38)" x="0 3 9 15 " y="-0">-100</text>
   </g>
   <g font-family="FreeSans" transform="translate(242.236,295.653) rotate(-0,7.5,-8)" font-weight="normal" font-style="normal" xml:space="preserve" font-size="10">
    <text fill="rgb(38,38,38)" x="0 3 9 " y="-0">-90</text>
   </g>
   <g font-family="FreeSans" transform="translate(307.293,295.653) rotate(-0,7.5,-8)" font-weight="normal" font-style="normal" xml:space="preserve" font-size="10">
    <text fill="rgb(38,38,38)" x="0 3 9 " y="-0">-80</text>
   </g>
   <g font-family="FreeSans" transform="translate(372.351,295.653) rotate(-0,7.5,-8)" font-weight="normal" font-style="normal" xml:space="preserve" font-size="10">
    <text fill="rgb(38,38,38)" x="0 3 9 " y="-0">-70</text>
   </g>
   <polyline stroke-linecap="butt" stroke-dasharray="16,0" stroke-opacity="0.15" fill="none" stroke-linejoin="miter" points="54.5642,280.166 379.851,280.166" stroke="#262626" stroke-width="0.5"/>
   <polyline stroke-linecap="butt" stroke-dasharray="16,0" stroke-opacity="0.15" fill="none" stroke-linejoin="miter" points="54.5642,243.515 379.851,243.515" stroke="#262626" stroke-width="0.5"/>
   <polyline stroke-linecap="butt" stroke-dasharray="16,0" stroke-opacity="0.15" fill="none" stroke-linejoin="miter" points="54.5642,206.864 379.851,206.864" stroke="#262626" stroke-width="0.5"/>
   <polyline stroke-linecap="butt" stroke-dasharray="16,0" stroke-opacity="0.15" fill="none" stroke-linejoin="miter" points="54.5642,170.213 379.851,170.213" stroke="#262626" stroke-width="0.5"/>
   <polyline stroke-linecap="butt" stroke-dasharray="16,0" stroke-opacity="0.15" fill="none" stroke-linejoin="miter" points="54.5642,133.562 379.851,133.562" stroke="#262626" stroke-width="0.5"/>
   <polyline stroke-linecap="butt" stroke-dasharray="16,0" stroke-opacity="0.15" fill="none" stroke-linejoin="miter" points="54.5642,96.9114 379.851,96.9114" stroke="#262626" stroke-width="0.5"/>
   <polyline stroke-linecap="butt" stroke-dasharray="16,0" stroke-opacity="0.15" fill="none" stroke-linejoin="miter" points="54.5642,60.2604 379.851,60.2604" stroke="#262626" stroke-width="0.5"/>
   <polyline stroke-linecap="butt" stroke-dasharray="16,0" stroke-opacity="0.15" fill="none" stroke-linejoin="miter" points="54.5642,23.6095 379.851,23.6095" stroke="#262626" stroke-width="0.5"/>
   <polyline stroke-linecap="butt" fill="none" stroke-linejoin="miter" points="54.5642,280.166 57.8199,280.166" stroke="#262626" stroke-width="0.5"/>
   <polyline stroke-linecap="butt" fill="none" stroke-linejoin="miter" points="379.851,280.166 376.595,280.166" stroke="#262626" stroke-width="0.5"/>
   <polyline stroke-linecap="butt" fill="none" stroke-linejoin="miter" points="54.5642,243.515 57.8199,243.515" stroke="#262626" stroke-width="0.5"/>
   <polyline stroke-linecap="butt" fill="none" stroke-linejoin="miter" points="379.851,243.515 376.595,243.515" stroke="#262626" stroke-width="0.5"/>
   <polyline stroke-linecap="butt" fill="none" stroke-linejoin="miter" points="54.5642,206.864 57.8199,206.864" stroke="#262626" stroke-width="0.5"/>
   <polyline stroke-linecap="butt" fill="none" stroke-linejoin="miter" points="379.851,206.864 376.595,206.864" stroke="#262626" stroke-width="0.5"/>
   <polyline stroke-linecap="butt" fill="none" stroke-linejoin="miter" points="54.5642,170.213 57.8199,170.213" stroke="#262626" stroke-width="0.5"/>
   <polyline stroke-linecap="butt" fill="none" stroke-linejoin="miter" points="379.851,170.213 376.595,170.213" stroke="#262626" stroke-width="0.5"/>
   <polyline stroke-linecap="butt" fill="none" stroke-linejoin="miter" points="54.5642,133.562 57.8199,133.562" stroke="#262626" stroke-width="0.5"/>
   <polyline stroke-linecap="butt" fill="none" stroke-linejoin="miter" points="379.851,133.562 376.595,133.562" stroke="#262626" stroke-width="0.5"/>
   <polyline stroke-linecap="butt" fill="none" stroke-linejoin="miter" points="54.5642,96.9114 57.8199,96.9114" stroke="#262626" stroke-width="0.5"/>
   <polyline stroke-linecap="butt" fill="none" stroke-linejoin="miter" points="379.851,96.9114 376.595,96.9114" stroke="#262626" stroke-width="0.5"/>
   <polyline stroke-linecap="butt" fill="none" stroke-linejoin="miter" points="54.5642,60.2604 57.8199,60.2604" stroke="#262626" stroke-width="0.5"/>
   <polyline stroke-linecap="butt" fill="none" stroke-linejoin="miter" points="379.851,60.2604 376.595,60.2604" stroke="#262626" stroke-width="0.5"/>
   <polyline stroke-linecap="butt" fill="none" stroke-linejoin="miter" points="54.5642,23.6095 57.8199,23.6095" stroke="#262626" stroke-width="0.5"/>
   <polyline stroke-linecap="butt" fill="none" stroke-linejoin="miter" points="379.851,23.6095 376.595,23.6095" stroke="#262626" stroke-width="0.5"/>
   <g font-family="FreeSans" transform="translate(43.5598,284.166) rotate(-0,6,-4)" font-weight="normal" font-style="normal" xml:space="preserve" font-size="10">
    <text fill="rgb(38,38,38)" x="0 " y="-0">0</text>
   </g>
   <g font-family="FreeSans" transform="translate(43.5598,247.515) rotate(-0,6,-4)" font-weight="normal" font-style="normal" xml:space="preserve" font-size="10">
    <text fill="rgb(38,38,38)" x="0 " y="-0">5</text>
   </g>
   <g font-family="FreeSans" transform="translate(37.5598,210.864) rotate(-0,12,-4)" font-weight="normal" font-style="normal" xml:space="preserve" font-size="10">
    <text fill="rgb(38,38,38)" x="0 6 " y="-0">10</text>
   </g>
   <g font-family="FreeSans" transform="translate(37.5598,174.213) rotate(-0,12,-4)" font-weight="normal" font-style="normal" xml:space="preserve" font-size="10">
    <text fill="rgb(38,38,38)" x="0 6 " y="-0">15</text>
   </g>
   <g font-family="FreeSans" transform="translate(37.5598,137.562) rotate(-0,12,-4)" font-weight="normal" font-style="normal" xml:space="preserve" font-size="10">
    <text fill="rgb(38,38,38)" x="0 6 " y="-0">20</text>
   </g>
   <g font-family="FreeSans" transform="translate(37.5598,100.911) rotate(-0,12,-4)" font-weight="normal" font-style="normal" xml:space="preserve" font-size="10">
    <text fill="rgb(38,38,38)" x="0 6 " y="-0">25</text>
   </g>
   <g font-family="FreeSans" transform="translate(37.5598,64.2604) rotate(-0,12,-4)" font-weight="normal" font-style="normal" xml:space="preserve" font-size="10">
    <text fill="rgb(38,38,38)" x="0 6 " y="-0">30</text>
   </g>
   <g font-family="FreeSans" transform="translate(37.5598,27.6095) rotate(-0,12,-4)" font-weight="normal" font-style="normal" xml:space="preserve" font-size="10">
    <text fill="rgb(38,38,38)" x="0 6 " y="-0">35</text>
   </g>
   <polyline stroke-linecap="square" stroke-dasharray="16,0" fill="none" stroke-linejoin="miter" points="54.5642,280.166 379.851,280.166" stroke="#262626" stroke-width="0.5"/>
   <polyline stroke-linecap="square" stroke-dasharray="16,0" fill="none" stroke-linejoin="miter" points="54.5642,23.6095 379.851,23.6095" stroke="#262626" stroke-width="0.5"/>
   <polyline stroke-linecap="square" stroke-dasharray="16,0" fill="none" stroke-linejoin="miter" points="54.5642,280.166 54.5642,23.6095" stroke="#262626" stroke-width="0.5"/>
   <polyline stroke-linecap="square" stroke-dasharray="16,0" fill="none" stroke-linejoin="miter" points="379.851,280.166 379.851,23.6095" stroke="#262626" stroke-width="0.5"/>
  </g>
 </g>
</svg>
